<svg aria-hidden="true" version="1.1" xmlns="http://www.w3.org/2000/svg" xmlns:xlink="http://www.w3.org/1999/xlink">
	 <!-- Benefits -->
	<symbol id="agency" viewBox="0 0 32 32" fill="none">
		<path d="M1 31.1122H26.4682" stroke="currentColor" stroke-linecap="round" stroke-linejoin="round"/>
		<path d="M14.8918 23.0087L7.9459 24.2589L9.10354 17.2204L24.6854 1.68486C24.9007 1.46785 25.1567 1.29561 25.4389 1.17806C25.721 1.06052 26.0236 1 26.3293 1C26.6349 1 26.9375 1.06052 27.2197 1.17806C27.5018 1.29561 27.7579 1.46785 27.9731 1.68486L30.4273 4.13906C30.6443 4.3543 30.8166 4.61037 30.9341 4.89251C31.0517 5.17465 31.1122 5.47727 31.1122 5.78292C31.1122 6.08856 31.0517 6.39118 30.9341 6.67332C30.8166 6.95546 30.6443 7.21153 30.4273 7.42677L14.8918 23.0087Z" stroke="currentColor" stroke-linecap="round" stroke-linejoin="round"/>
	</symbol>

	<symbol id="idea" viewBox="0 0 23 32" fill="none">
		<path d="M22.0226 11.4907C22.0355 9.63102 21.5503 7.80175 20.6175 6.19285C19.6846 4.58395 18.3381 3.25407 16.7178 2.34127C15.0974 1.42847 13.2623 0.966023 11.4029 1.00194C9.54344 1.03786 7.72752 1.57084 6.14363 2.54554C4.55975 3.52024 3.26562 4.90114 2.39562 6.54486C1.52562 8.18859 1.11145 10.0352 1.19611 11.8931C1.28076 13.7509 1.86117 15.5522 2.87706 17.11C3.89295 18.6678 5.3073 19.9253 6.97327 20.7519V24.2248C6.97327 24.5318 7.09524 24.8263 7.31234 25.0434C7.52944 25.2605 7.82389 25.3825 8.13092 25.3825H15.0768C15.3838 25.3825 15.6783 25.2605 15.8954 25.0434C16.1125 24.8263 16.2344 24.5318 16.2344 24.2248V20.7519C17.9651 19.8992 19.4236 18.5808 20.4461 16.9448C21.4686 15.3088 22.0146 13.42 22.0226 11.4907V11.4907Z" stroke="currentColor" stroke-linecap="round" stroke-linejoin="round"/>
		<path d="M6.97327 31.1705H16.2344" stroke="currentColor" stroke-linecap="round" stroke-linejoin="round"/>
	</symbol>

	<symbol id="star" viewBox="0 0 32 31" fill="none">
		<path d="M17.1647 1.72996L20.8426 9.21464C20.9263 9.40461 21.0579 9.56916 21.2243 9.6919C21.3907 9.81463 21.5861 9.89126 21.791 9.91414L29.9101 11.1266C30.1452 11.1571 30.3669 11.2543 30.5492 11.407C30.7315 11.5597 30.8669 11.7615 30.9397 11.9889C31.0124 12.2163 31.0195 12.4598 30.9601 12.6911C30.9007 12.9224 30.7772 13.1319 30.6041 13.2951L24.7518 19.1476C24.6025 19.2882 24.4904 19.4643 24.4257 19.6598C24.3611 19.8553 24.346 20.0639 24.3817 20.2668L25.7927 28.4976C25.8336 28.7341 25.8078 28.9774 25.7182 29.1999C25.6287 29.4223 25.4789 29.6149 25.2861 29.7558C25.0933 29.8967 24.8651 29.9803 24.6276 29.9969C24.39 30.0136 24.1525 29.9626 23.9422 29.85L16.6327 25.9561C16.4455 25.8634 16.2398 25.8153 16.0313 25.8153C15.8228 25.8153 15.617 25.8634 15.4299 25.9561L8.12032 29.85C7.91003 29.9626 7.67258 30.0136 7.435 29.9969C7.19742 29.9803 6.96924 29.8967 6.77642 29.7558C6.58361 29.6149 6.4339 29.4223 6.34434 29.1999C6.25478 28.9774 6.22896 28.7341 6.26981 28.4976L7.68083 20.1735C7.71659 19.9706 7.70146 19.762 7.63682 19.5665C7.57218 19.371 7.46009 19.195 7.31072 19.0543L1.38908 13.2951C1.21388 13.1274 1.09068 12.9121 1.03439 12.6753C0.978095 12.4385 0.99113 12.1904 1.07191 11.9609C1.1527 11.7314 1.29776 11.5304 1.48954 11.3824C1.68131 11.2343 1.91157 11.1455 2.15241 11.1266L10.2715 9.91414C10.4765 9.89126 10.6719 9.81463 10.8383 9.6919C11.0047 9.56916 11.1363 9.40461 11.2199 9.21464L14.8978 1.72996C14.998 1.51197 15.1579 1.32741 15.3588 1.19807C15.5596 1.06873 15.793 1 16.0313 1C16.2696 1 16.503 1.06873 16.7038 1.19807C16.9046 1.32741 17.0646 1.51197 17.1647 1.72996V1.72996Z" stroke="currentColor" stroke-linecap="round" stroke-linejoin="round"/>
	</symbol>

	<symbol id="quality" viewBox="0 0 32 32" fill="none">
		<path d="M30.8414 8.13623C30.7968 7.89448 30.7018 7.6648 30.5627 7.4621C30.4235 7.25941 30.2433 7.08824 30.0337 6.95969L25.4181 11.5736C25.2029 11.7968 24.9448 11.9744 24.6593 12.0957C24.3738 12.217 24.0668 12.2796 23.7565 12.2796C23.4463 12.2796 23.1393 12.217 22.8538 12.0957C22.5683 11.9744 22.3102 11.7968 22.095 11.5736L20.3411 10.0049C19.9182 9.57362 19.6814 8.99384 19.6814 8.39C19.6814 7.78615 19.9182 7.20637 20.3411 6.77514L24.9566 2.16126C24.8559 1.92489 24.7045 1.71351 24.5131 1.54209C24.3217 1.37068 24.0949 1.2434 23.8489 1.16928C22.2384 0.848247 20.5702 0.985667 19.0341 1.5659C17.498 2.14613 16.1557 3.14585 15.1601 4.45125C14.1644 5.75665 13.5554 7.31527 13.4025 8.94967C13.2495 10.5841 13.5586 12.2286 14.2947 13.696L1.69435 26.1765C1.47454 26.3913 1.2999 26.6479 1.18066 26.9312C1.06142 27.2144 1 27.5186 1 27.8259C1 28.1333 1.06142 28.4375 1.18066 28.7207C1.2999 29.004 1.47454 29.2606 1.69435 29.4754L2.52514 30.3059C2.74007 30.5256 2.99674 30.7002 3.2801 30.8194C3.56345 30.9386 3.86777 31 4.17519 31C4.48261 31 4.78693 30.9386 5.07029 30.8194C5.35364 30.7002 5.61032 30.5256 5.82524 30.3059L18.4256 17.7331C19.8939 18.4324 21.5275 18.7109 23.1446 18.5376C24.7618 18.3643 26.2992 17.746 27.5858 16.7515C28.8725 15.7569 29.858 14.4251 30.4327 12.9042C31.0075 11.3832 31.1489 9.73275 30.8414 8.13623V8.13623Z" stroke="currentColor" stroke-linecap="round" stroke-linejoin="round"/>
	</symbol>

	<symbol id="creativity" viewBox="0 0 23 32" fill="none">
		<path d="M13.8333 1V12.5385H22L9.16667 31V19.4615H1L13.8333 1Z" stroke="currentColor" stroke-linecap="round" stroke-linejoin="round"/>
	</symbol>

	<!-- Social media -->

	<symbol id="google" viewBox="0 0 48 48" fill="none">
		<path d="m31.6814,34.8868c-1.9155,1.29-4.3586,2.0718-7.2514,2.0718-5.59,0-10.3395-3.7723-12.04-8.8541v-.0195c-.43-1.29-.6841-2.6582-.6841-4.085s.2541-2.795.6841-4.085c1.7005-5.0818,6.45-8.8541,12.04-8.8541,3.1664,0,5.9809,1.0945,8.2286,3.2055l6.1568-6.1568c-3.7332-3.4791-8.5805-5.6095-14.3855-5.6095-8.4045,0-15.6559,4.8277-19.1936,11.8641-1.4659,2.8927-2.3064,6.1568-2.3064,9.6359s.8405,6.7432,2.3064,9.6359v.0195c3.5377,7.0168,10.7891,11.8445,19.1936,11.8445,5.805,0,10.6718-1.9155,14.2291-5.1991,4.0655-3.7527,6.4109-9.2645,6.4109-15.8123,0-1.5245-.1368-2.9905-.3909-4.3977h-20.2491v8.3264h11.5709c-.5082,2.6777-2.0327,4.945-4.3195,6.4695h0Z" stroke="currentColor" stroke-width="1.5" stroke-linecap="round" stroke-linejoin="round"/>
	</symbol>

	<symbol id="google-colored" viewBox="-3 0 262 262" preserveAspectRatio="xMidYMid" fill="none">
		<path d="M255.878 133.451c0-10.734-.871-18.567-2.756-26.69H130.55v48.448h71.947c-1.45 12.04-9.283 30.172-26.69 42.356l-.244 1.622 38.755 30.023 2.685.268c24.659-22.774 38.875-56.282 38.875-96.027" fill="#4285F4" stroke="#000000" stroke-width="1.5" stroke-linecap="round" stroke-linejoin="round"></path>
		<path d="M130.55 261.1c35.248 0 64.839-11.605 86.453-31.622l-41.196-31.913c-11.024 7.688-25.82 13.055-45.257 13.055-34.523 0-63.824-22.773-74.269-54.25l-1.531.13-40.298 31.187-.527 1.465C35.393 231.798 79.49 261.1 130.55 261.1" fill="#34A853" stroke="#000000" stroke-width="1.5" stroke-linecap="round" stroke-linejoin="round"></path>
		<path d="M56.281 156.37c-2.756-8.123-4.351-16.827-4.351-25.82 0-8.994 1.595-17.697 4.206-25.82l-.073-1.73L15.26 71.312l-1.335.635C5.077 89.644 0 109.517 0 130.55s5.077 40.905 13.925 58.602l42.356-32.782" fill="#FBBC05" stroke="#000000" stroke-width="1.5" stroke-linecap="round" stroke-linejoin="round"></path>
		<path d="M130.55 50.479c24.514 0 41.05 10.589 50.479 19.438l36.844-35.974C195.245 12.91 165.798 0 130.55 0 79.49 0 35.393 29.301 13.925 71.947l42.211 32.783c10.59-31.477 39.891-54.251 74.414-54.251" fill="#EB4335" stroke="#000000" stroke-width="1.5" stroke-linecap="round" stroke-linejoin="round"></path>
	</symbol>

	<symbol id="instagram" viewBox="0 0 24 24" fill="none" xmlns="http://www.w3.org/2000/svg">
		<path d="M3.06167 7.24464C3.10844 6.22264 3.26846 5.56351 3.48487 5.00402L3.48778 4.99629C3.70223 4.42695 4.03818 3.91119 4.47224 3.48489L4.47833 3.47891L4.48431 3.47282C4.91096 3.0382 5.42691 2.70258 5.99575 2.4887L6.00556 2.48495C6.56378 2.26786 7.22162 2.10843 8.24447 2.06167M3.06167 7.24464C3.0125 8.33659 2.99997 8.67508 2.99997 11.5063C2.99997 14.3381 3.01181 14.6758 3.06164 15.768M3.06167 7.24464L3.06167 7.52008M3.48867 18.0168C3.70255 18.5856 4.03817 19.1015 4.47279 19.5282L4.47887 19.5342L4.48484 19.5402C4.91116 19.9743 5.42694 20.3103 5.99628 20.5247L6.00478 20.5279C6.56351 20.7446 7.22167 20.9041 8.24447 20.9509M3.48867 18.0168L3.48492 18.0069C3.26783 17.4487 3.1084 16.7909 3.06164 15.768M3.48867 18.0168L3.47585 17.9492M3.06164 15.768L3.07839 15.8562M3.06164 15.768L3.06164 15.4919M3.47585 17.9492L3.07839 15.8562M3.47585 17.9492C3.30704 17.5033 3.13322 16.881 3.07839 15.8562M3.47585 17.9492C3.48177 17.9649 3.48768 17.9803 3.49359 17.9955C3.70766 18.5726 4.04685 19.0952 4.48679 19.5256C4.91708 19.9655 5.43944 20.3046 6.01636 20.5187C6.47934 20.699 7.13172 20.8875 8.24431 20.9385C9.3671 20.9896 9.71399 21 12.5062 21C15.2985 21 15.6457 20.9896 16.7685 20.9385C17.8824 20.8874 18.534 20.6979 18.9954 20.519C19.5726 20.305 20.0953 19.9657 20.5257 19.5256C20.9655 19.0953 21.3046 18.573 21.5187 17.9961C21.699 17.5331 21.8875 16.8808 21.9384 15.7682C21.9895 14.6454 22 14.2978 22 11.5063C22 8.71472 21.9895 8.36684 21.9384 7.24405C21.8871 6.12427 21.6959 5.47168 21.5161 5.00992C21.2811 4.40322 20.9831 3.94437 20.525 3.48627C20.0678 3.02999 19.6102 2.73179 19.003 2.49654C18.5396 2.31537 17.8866 2.12531 16.7685 2.07406C16.6712 2.06964 16.5798 2.06552 16.4921 2.06168M3.07839 15.8562C3.07684 15.8273 3.07539 15.7981 3.07403 15.7685C3.06961 15.6712 3.06548 15.5797 3.06164 15.4919M8.24447 2.06167C9.33668 2.01184 9.67505 2 12.5062 2C15.3374 2 15.6756 2.01252 16.7675 2.06168M8.24447 2.06167L8.52062 2.06167M16.7675 2.06168L16.4921 2.06168M16.7675 2.06168C17.7897 2.10844 18.4489 2.26844 19.0085 2.48487L19.0162 2.48781C19.5855 2.70226 20.1013 3.03821 20.5276 3.47227L20.5335 3.4783L20.5396 3.48422C20.9737 3.91055 21.3096 4.42646 21.5239 4.99596L21.5275 5.00559C21.7446 5.56381 21.9041 6.22165 21.9508 7.2445M8.52062 2.06167L16.4921 2.06168M8.52062 2.06167C9.44548 2.02123 9.95666 2.01253 12.5062 2.01253C15.056 2.01253 15.5671 2.02124 16.4921 2.06168M8.52062 2.06167C8.43284 2.06551 8.34134 2.06964 8.24402 2.07406C7.13004 2.12512 6.47843 2.31464 6.01708 2.49358C5.43767 2.70837 4.91328 3.04936 4.48192 3.49186C4.0281 3.94756 3.73105 4.40422 3.49655 5.0094C3.31536 5.4728 3.12527 6.12614 3.07402 7.24434C3.06961 7.34135 3.06549 7.43257 3.06167 7.52008M21.9508 15.768C21.9041 16.7908 21.7446 17.449 21.5279 18.0077L21.5247 18.0162C21.3102 18.5856 20.9743 19.1013 20.5402 19.5276L20.5341 19.5336L20.5282 19.5397C20.1015 19.9743 19.5856 20.3099 19.0167 20.5238L19.0069 20.5276C18.4487 20.7447 17.7908 20.9041 16.768 20.9509M3.06164 15.4919C3.0212 14.567 3.0125 14.0558 3.0125 11.5063C3.0125 8.95591 3.0212 8.44544 3.06167 7.52008M3.06164 15.4919L3.06167 7.52008M10.8155 15.5881C11.3515 15.8101 11.926 15.9244 12.5062 15.9244C13.678 15.9244 14.8018 15.4589 15.6304 14.6304C16.4589 13.8018 16.9244 12.678 16.9244 11.5063C16.9244 10.3345 16.4589 9.21072 15.6304 8.38215C14.8018 7.55359 13.678 7.0881 12.5062 7.0881C11.926 7.0881 11.3515 7.20238 10.8155 7.42442C10.2794 7.64645 9.79239 7.97189 9.38213 8.38215C8.97187 8.79242 8.64643 9.27947 8.42439 9.81551C8.20236 10.3515 8.08808 10.9261 8.08808 11.5063C8.08808 12.0865 8.20236 12.661 8.42439 13.197C8.64643 13.7331 8.97187 14.2201 9.38213 14.6304C9.79239 15.0406 10.2794 15.3661 10.8155 15.5881ZM9.37229 8.37231C10.2035 7.54113 11.3308 7.07418 12.5062 7.07418C13.6817 7.07418 14.809 7.54113 15.6402 8.37231C16.4714 9.20349 16.9383 10.3308 16.9383 11.5063C16.9383 12.6817 16.4714 13.809 15.6402 14.6402C14.809 15.4714 13.6817 15.9383 12.5062 15.9383C11.3308 15.9383 10.2035 15.4714 9.37229 14.6402C8.54111 13.809 8.07416 12.6817 8.07416 11.5063C8.07416 10.3308 8.54111 9.20349 9.37229 8.37231ZM19.434 6.04229C19.434 6.37873 19.3003 6.70139 19.0625 6.93929C18.8246 7.17719 18.5019 7.31084 18.1655 7.31084C17.829 7.31084 17.5064 7.17719 17.2685 6.93929C17.0306 6.70139 16.8969 6.37873 16.8969 6.04229C16.8969 5.70585 17.0306 5.38319 17.2685 5.1453C17.5064 4.9074 17.829 4.77375 18.1655 4.77375C18.5019 4.77375 18.8246 4.9074 19.0625 5.1453C19.3003 5.38319 19.434 5.70585 19.434 6.04229Z" stroke="currentColor" stroke-linejoin="round"></path>
	</symbol>

	<symbol id="instagram-colored" viewBox="0 0 2500 2500" fill="none">
		<defs>
			<radialGradient id="0" cx="332.14" cy="2511.81" r="3263.54" gradientUnits="userSpaceOnUse">
			<stop offset=".09" stop-color="#fa8f21"></stop>
			<stop offset=".78" stop-color="#d82d7e"></stop>
			</radialGradient>
			<radialGradient id="1" cx="1516.14" cy="2623.81" r="2572.12" gradientUnits="userSpaceOnUse">
			<stop offset=".64" stop-color="#8c3aaa" stop-opacity="0"></stop>
			<stop offset="1" stop-color="#8c3aaa"></stop>
			</radialGradient>
		</defs>
		<path d="M833.4,1250c0-230.11,186.49-416.7,416.6-416.7s416.7,186.59,416.7,416.7-186.59,416.7-416.7,416.7S833.4,1480.11,833.4,1250m-225.26,0c0,354.5,287.36,641.86,641.86,641.86S1891.86,1604.5,1891.86,1250,1604.5,608.14,1250,608.14,608.14,895.5,608.14,1250M1767.27,582.69a150,150,0,1,0,150.06-149.94h-0.06a150.07,150.07,0,0,0-150,149.94M745,2267.47c-121.87-5.55-188.11-25.85-232.13-43-58.36-22.72-100-49.78-143.78-93.5s-70.88-85.32-93.5-143.68c-17.16-44-37.46-110.26-43-232.13-6.06-131.76-7.27-171.34-7.27-505.15s1.31-373.28,7.27-505.15c5.55-121.87,26-188,43-232.13,22.72-58.36,49.78-100,93.5-143.78s85.32-70.88,143.78-93.5c44-17.16,110.26-37.46,232.13-43,131.76-6.06,171.34-7.27,505-7.27s373.28,1.31,505.15,7.27c121.87,5.55,188,26,232.13,43,58.36,22.62,100,49.78,143.78,93.5s70.78,85.42,93.5,143.78c17.16,44,37.46,110.26,43,232.13,6.06,131.87,7.27,171.34,7.27,505.15s-1.21,373.28-7.27,505.15c-5.55,121.87-25.95,188.11-43,232.13-22.72,58.36-49.78,100-93.5,143.68s-85.42,70.78-143.78,93.5c-44,17.16-110.26,37.46-232.13,43-131.76,6.06-171.34,7.27-505.15,7.27s-373.28-1.21-505-7.27M734.65,7.57c-133.07,6.06-224,27.16-303.41,58.06C349,97.54,279.38,140.35,209.81,209.81S97.54,349,65.63,431.24c-30.9,79.46-52,170.34-58.06,303.41C1.41,867.93,0,910.54,0,1250s1.41,382.07,7.57,515.35c6.06,133.08,27.16,223.95,58.06,303.41,31.91,82.19,74.62,152,144.18,221.43S349,2402.37,431.24,2434.37c79.56,30.9,170.34,52,303.41,58.06C868,2498.49,910.54,2500,1250,2500s382.07-1.41,515.35-7.57c133.08-6.06,223.95-27.16,303.41-58.06,82.19-32,151.86-74.72,221.43-144.18s112.18-139.24,144.18-221.43c30.9-79.46,52.1-170.34,58.06-303.41,6.06-133.38,7.47-175.89,7.47-515.35s-1.41-382.07-7.47-515.35c-6.06-133.08-27.16-224-58.06-303.41-32-82.19-74.72-151.86-144.18-221.43S2150.95,97.54,2068.86,65.63c-79.56-30.9-170.44-52.1-303.41-58.06C1632.17,1.51,1589.56,0,1250.1,0S868,1.41,734.65,7.57" fill="url(#0)" stroke="#233942" stroke-width="1.5" stroke-linecap="round" stroke-linejoin="round"></path>
		<path d="M833.4,1250c0-230.11,186.49-416.7,416.6-416.7s416.7,186.59,416.7,416.7-186.59,416.7-416.7,416.7S833.4,1480.11,833.4,1250m-225.26,0c0,354.5,287.36,641.86,641.86,641.86S1891.86,1604.5,1891.86,1250,1604.5,608.14,1250,608.14,608.14,895.5,608.14,1250M1767.27,582.69a150,150,0,1,0,150.06-149.94h-0.06a150.07,150.07,0,0,0-150,149.94M745,2267.47c-121.87-5.55-188.11-25.85-232.13-43-58.36-22.72-100-49.78-143.78-93.5s-70.88-85.32-93.5-143.68c-17.16-44-37.46-110.26-43-232.13-6.06-131.76-7.27-171.34-7.27-505.15s1.31-373.28,7.27-505.15c5.55-121.87,26-188,43-232.13,22.72-58.36,49.78-100,93.5-143.78s85.32-70.88,143.78-93.5c44-17.16,110.26-37.46,232.13-43,131.76-6.06,171.34-7.27,505-7.27s373.28,1.31,505.15,7.27c121.87,5.55,188,26,232.13,43,58.36,22.62,100,49.78,143.78,93.5s70.78,85.42,93.5,143.78c17.16,44,37.46,110.26,43,232.13,6.06,131.87,7.27,171.34,7.27,505.15s-1.21,373.28-7.27,505.15c-5.55,121.87-25.95,188.11-43,232.13-22.72,58.36-49.78,100-93.5,143.68s-85.42,70.78-143.78,93.5c-44,17.16-110.26,37.46-232.13,43-131.76,6.06-171.34,7.27-505.15,7.27s-373.28-1.21-505-7.27M734.65,7.57c-133.07,6.06-224,27.16-303.41,58.06C349,97.54,279.38,140.35,209.81,209.81S97.54,349,65.63,431.24c-30.9,79.46-52,170.34-58.06,303.41C1.41,867.93,0,910.54,0,1250s1.41,382.07,7.57,515.35c6.06,133.08,27.16,223.95,58.06,303.41,31.91,82.19,74.62,152,144.18,221.43S349,2402.37,431.24,2434.37c79.56,30.9,170.34,52,303.41,58.06C868,2498.49,910.54,2500,1250,2500s382.07-1.41,515.35-7.57c133.08-6.06,223.95-27.16,303.41-58.06,82.19-32,151.86-74.72,221.43-144.18s112.18-139.24,144.18-221.43c30.9-79.46,52.1-170.34,58.06-303.41,6.06-133.38,7.47-175.89,7.47-515.35s-1.41-382.07-7.47-515.35c-6.06-133.08-27.16-224-58.06-303.41-32-82.19-74.72-151.86-144.18-221.43S2150.95,97.54,2068.86,65.63c-79.56-30.9-170.44-52.1-303.41-58.06C1632.17,1.51,1589.56,0,1250.1,0S868,1.41,734.65,7.57" fill="url(#1)" stroke="#233942" stroke-width="1.5" stroke-linecap="round" stroke-linejoin="round"></path>
	</symbol>

</svg>